<?xml version="1.0" standalone="no"?>
<!DOCTYPE svg PUBLIC "-//W3C//DTD SVG 20010904//EN"
 "http://www.w3.org/TR/2001/REC-SVG-20010904/DTD/svg10.dtd">
<svg version="1.0" xmlns="http://www.w3.org/2000/svg"
 width="900.000000pt" height="900.000000pt" viewBox="0 0 900.000000 900.000000"
 preserveAspectRatio="xMidYMid meet">
<metadata>
Created by potrace 1.10, written by Peter Selinger 2001-2011
</metadata>
<g transform="translate(0.000000,900.000000) scale(0.100000,-0.100000)"
fill="#88D2D8" stroke="none">
<path d="M3832 8303 c-13 -3 -27 -15 -32 -28 -11 -28 -12 -156 -2 -172 17 -28
71 -33 336 -33 242 0 275 -2 287 -17 19 -22 20 -505 2 -524 -7 -7 -58 -16
-122 -20 -60 -4 -134 -14 -164 -23 -30 -9 -101 -21 -156 -26 -58 -6 -121 -19
-149 -31 -26 -11 -73 -25 -106 -30 -32 -6 -75 -18 -96 -29 -20 -10 -59 -24
-86 -31 -27 -6 -67 -22 -89 -34 -22 -12 -58 -28 -80 -35 -22 -7 -50 -19 -63
-27 -13 -8 -67 -37 -120 -64 -52 -27 -103 -55 -111 -63 -9 -7 -34 -23 -56 -35
-22 -12 -58 -35 -80 -52 -22 -16 -58 -41 -80 -56 -22 -14 -50 -35 -62 -47 -12
-12 -37 -33 -55 -48 -18 -16 -68 -59 -110 -98 -78 -71 -100 -80 -141 -58 -33
17 -337 329 -348 356 -5 13 -9 31 -9 40 0 9 90 109 200 222 110 113 200 212
200 221 0 8 -24 43 -52 77 -46 53 -58 62 -88 62 -33 0 -55 -20 -347 -318 -647
-658 -673 -686 -673 -708 0 -43 101 -144 145 -144 12 0 92 73 214 197 245 248
223 243 371 93 185 -187 239 -248 246 -274 8 -35 -10 -77 -55 -125 -66 -71
-112 -133 -150 -202 -11 -19 -27 -41 -35 -48 -9 -8 -16 -18 -16 -24 0 -5 -11
-24 -24 -41 -13 -17 -34 -50 -47 -74 -13 -24 -38 -69 -56 -100 -18 -31 -39
-73 -48 -92 -8 -19 -29 -62 -45 -95 -17 -33 -30 -67 -30 -75 0 -8 -11 -35 -24
-60 -13 -25 -29 -69 -35 -99 -6 -30 -20 -69 -31 -86 -11 -18 -24 -64 -30 -104
-6 -40 -19 -94 -30 -119 -10 -26 -26 -105 -35 -177 -10 -71 -21 -155 -26 -185
-5 -30 -14 -95 -19 -145 -8 -63 -16 -94 -27 -102 -26 -20 -552 -18 -579 1 -18
13 -19 32 -24 301 l-5 287 -28 24 c-23 20 -39 24 -92 24 -102 0 -95 59 -95
-769 l0 -710 22 -12 c27 -14 164 -7 181 10 11 11 15 142 17 519 0 64 3 76 25
97 l24 25 269 0 c254 0 270 -1 287 -20 14 -15 19 -47 26 -157 8 -131 22 -233
33 -251 3 -5 10 -57 16 -117 7 -68 19 -128 34 -164 13 -31 26 -83 30 -115 4
-33 15 -74 26 -91 11 -17 25 -56 31 -86 6 -30 21 -72 34 -94 12 -22 25 -53 29
-70 6 -28 56 -140 77 -175 5 -8 21 -39 35 -67 14 -29 30 -55 35 -59 6 -3 21
-29 34 -57 14 -29 43 -77 66 -107 22 -30 45 -66 50 -79 5 -13 21 -38 35 -55
110 -133 143 -183 144 -211 0 -26 -26 -57 -184 -218 -125 -127 -191 -187 -205
-187 -15 0 -87 66 -224 205 -162 164 -208 205 -229 205 -20 0 -41 -16 -82 -62
-31 -34 -56 -66 -56 -72 1 -34 74 -112 655 -701 116 -117 241 -244 278 -284
38 -39 73 -71 79 -71 13 0 64 45 112 98 28 31 35 46 31 64 -3 13 -89 108 -190
212 -101 104 -191 204 -201 222 l-19 34 92 93 c50 50 134 136 187 190 52 53
103 97 113 97 23 -1 43 -16 128 -98 91 -87 259 -223 310 -251 43 -24 98 -62
130 -90 11 -10 35 -23 53 -29 19 -6 47 -23 64 -37 16 -14 36 -25 44 -25 9 0
41 -13 72 -30 93 -48 190 -89 230 -96 20 -4 55 -17 77 -30 22 -12 65 -26 95
-30 30 -4 83 -17 117 -30 34 -12 106 -28 160 -34 54 -6 118 -16 143 -21 81
-18 204 -39 232 -39 55 0 60 -24 56 -272 -3 -192 -5 -228 -20 -251 l-18 -26
-285 -3 c-241 -3 -287 -5 -295 -18 -14 -22 -12 -194 2 -208 18 -18 1397 -17
1421 1 15 10 17 27 15 107 -3 89 -4 95 -28 107 -18 9 -97 13 -291 13 -236 0
-268 2 -280 17 -21 25 -20 496 1 517 11 11 54 16 165 20 95 3 184 13 242 26
51 11 138 25 195 31 64 7 121 20 153 34 27 12 74 26 104 29 30 4 75 18 100 31
26 13 65 27 87 31 21 4 63 20 93 35 30 16 60 29 67 29 17 0 203 98 313 165 52
31 134 87 169 115 18 14 49 39 70 55 21 17 56 44 77 60 21 17 54 45 72 63 37
35 40 36 76 23 27 -10 267 -252 279 -279 14 -36 6 -54 -58 -119 -37 -37 -129
-132 -205 -209 -77 -78 -139 -148 -139 -156 0 -20 128 -148 147 -148 14 0 247
233 880 880 67 69 127 138 133 154 10 29 8 33 -53 94 -53 53 -68 63 -87 57
-12 -4 -108 -94 -214 -201 -150 -153 -198 -195 -224 -200 -32 -7 -38 -2 -168
131 -123 126 -134 141 -134 175 0 26 7 43 26 61 23 21 70 81 166 208 68 90
150 212 173 256 8 17 33 59 55 95 22 36 47 81 55 100 8 19 28 62 44 95 51 103
91 201 91 219 0 9 11 39 25 65 13 27 29 75 34 107 5 33 18 80 29 105 11 26 25
84 30 130 6 46 18 111 28 144 22 80 33 177 33 312 1 100 3 113 20 123 27 14
655 14 682 0 18 -10 19 -24 19 -295 0 -272 1 -286 20 -305 24 -24 103 -27 155
-6 l35 15 2 293 c2 161 1 482 -1 713 -3 368 -5 422 -19 433 -21 16 -164 16
-180 0 -9 -9 -12 -89 -12 -299 0 -254 -2 -288 -17 -300 -13 -11 -81 -15 -322
-17 -168 -2 -316 0 -328 3 -46 11 -53 30 -53 138 0 121 -15 249 -35 307 -8 23
-20 83 -26 134 -6 50 -20 111 -31 136 -11 25 -24 74 -29 110 -5 35 -21 83 -34
106 -14 24 -25 53 -25 65 0 12 -13 49 -29 83 -16 34 -48 104 -71 156 -23 52
-49 102 -56 111 -8 8 -19 31 -25 50 -7 19 -22 48 -35 66 -13 17 -24 36 -24 42
0 5 -11 22 -24 38 -13 15 -33 46 -45 68 -12 22 -37 60 -56 85 -19 25 -43 56
-52 70 -25 36 -144 183 -158 195 -21 18 -35 53 -35 87 0 29 14 48 100 137 89
92 159 151 177 151 4 0 100 -95 215 -211 234 -238 218 -230 300 -151 52 50 67
90 46 121 -8 11 -183 192 -389 401 -206 210 -422 431 -480 492 -93 99 -109
111 -139 111 -28 0 -42 -9 -82 -52 -35 -38 -48 -60 -48 -82 0 -32 20 -54 273
-311 49 -50 95 -106 103 -125 14 -31 13 -37 -5 -66 -33 -52 -224 -235 -253
-242 -24 -6 -37 1 -90 47 -35 30 -93 78 -130 106 -37 28 -73 55 -80 61 -35 30
-178 123 -218 142 -25 12 -58 32 -73 45 -16 13 -34 24 -40 24 -7 0 -30 10 -52
21 -22 12 -62 30 -90 39 -27 9 -66 27 -85 39 -19 11 -42 21 -50 21 -8 0 -40
12 -70 26 -30 14 -87 31 -127 39 -40 8 -93 23 -118 34 -25 11 -81 23 -123 27
-42 3 -129 17 -192 30 -63 13 -151 24 -195 25 -126 1 -185 12 -207 39 -18 22
-19 40 -16 253 3 227 3 229 27 248 22 18 43 19 306 19 338 0 315 -9 315 128 0
80 -2 93 -19 102 -19 10 -1367 13 -1419 3z m1143 -1541 c33 -12 93 -26 132
-31 40 -5 96 -20 125 -33 30 -14 71 -28 93 -32 21 -4 50 -16 63 -26 13 -11 47
-26 76 -34 30 -9 59 -22 65 -30 7 -8 29 -20 49 -27 20 -7 48 -21 62 -31 14
-11 39 -26 55 -34 17 -7 50 -30 75 -49 25 -19 63 -47 85 -62 103 -69 379 -335
433 -415 13 -21 28 -38 31 -38 4 0 15 -15 26 -32 10 -18 30 -47 44 -64 14 -17
34 -44 43 -60 10 -16 31 -49 48 -74 16 -25 41 -67 55 -95 14 -27 35 -68 47
-90 50 -96 68 -134 68 -146 0 -8 14 -43 30 -77 17 -35 30 -74 30 -85 0 -12 12
-53 25 -92 14 -38 32 -120 41 -182 8 -62 22 -129 31 -150 15 -33 17 -78 18
-333 0 -254 -3 -302 -18 -345 -9 -27 -24 -99 -32 -158 -8 -59 -24 -125 -34
-145 -10 -21 -22 -63 -26 -95 -4 -34 -17 -72 -31 -92 -12 -19 -26 -51 -30 -72
-3 -21 -17 -58 -30 -83 -13 -25 -33 -65 -44 -90 -27 -60 -80 -155 -116 -209
-16 -24 -38 -59 -49 -76 -43 -70 -81 -123 -134 -185 -67 -79 -232 -244 -285
-285 -22 -17 -60 -46 -85 -65 -80 -61 -163 -116 -246 -161 -22 -12 -51 -30
-64 -40 -13 -11 -32 -19 -41 -19 -10 0 -44 -14 -75 -30 -32 -17 -79 -36 -104
-42 -25 -6 -68 -22 -96 -35 -27 -12 -62 -23 -78 -23 -15 0 -60 -12 -100 -26
-176 -62 -844 -66 -1020 -5 -32 11 -86 25 -120 31 -33 7 -78 20 -98 31 -21 10
-59 23 -85 29 -25 6 -58 19 -71 30 -13 10 -41 24 -61 31 -20 6 -47 20 -60 30
-13 10 -40 23 -60 30 -20 6 -49 22 -64 35 -16 12 -38 26 -49 29 -20 7 -91 55
-129 88 -8 7 -28 21 -45 32 -37 23 -157 125 -210 179 -76 77 -244 284 -280
345 -5 9 -21 34 -34 56 -14 22 -32 54 -41 70 -9 17 -24 44 -33 60 -9 17 -24
46 -32 65 -9 19 -22 46 -30 60 -28 50 -73 156 -80 190 -4 19 -18 55 -30 80
-13 25 -27 70 -30 100 -4 30 -16 72 -26 92 -12 23 -24 86 -34 170 -8 73 -21
167 -27 208 -20 123 -10 443 17 529 2 9 9 62 14 118 6 63 17 119 30 148 12 26
25 74 31 107 5 33 18 75 29 94 11 18 23 50 27 71 4 21 20 62 35 92 16 30 29
59 29 66 0 7 9 24 20 38 11 14 27 45 36 69 8 23 23 52 33 63 10 11 22 31 26
45 10 31 67 113 201 286 78 100 238 261 340 341 193 152 235 183 249 183 7 0
29 13 50 30 20 16 53 34 73 39 19 6 44 19 56 29 12 11 39 25 60 32 22 7 53 21
70 30 17 10 53 23 80 29 27 7 66 21 87 32 22 11 72 24 113 29 40 5 91 16 112
24 73 29 149 35 444 32 274 -2 299 -4 355 -24z"/>
</g>
</svg>
