<?xml version="1.0" standalone="no"?>
<!DOCTYPE svg PUBLIC "-//W3C//DTD SVG 20010904//EN"
 "http://www.w3.org/TR/2001/REC-SVG-20010904/DTD/svg10.dtd">
<svg version="1.0" xmlns="http://www.w3.org/2000/svg"
 width="900.000000pt" height="900.000000pt" viewBox="0 0 900.000000 900.000000"
 preserveAspectRatio="xMidYMid meet">
<metadata>
Created by potrace 1.10, written by Peter Selinger 2001-2011
</metadata>
<g transform="translate(0.000000,900.000000) scale(0.100000,-0.100000)"
fill="#222629" stroke="none">
<path d="M0 4500 l0 -4500 4500 0 4500 0 0 4500 0 4500 -4500 0 -4500 0 0
-4500z m5251 3800 c17 -9 19 -22 19 -102 0 -137 23 -128 -315 -128 -263 0
-284 -1 -306 -19 -24 -19 -24 -21 -27 -248 -3 -213 -2 -231 16 -253 22 -27 81
-38 207 -39 44 -1 132 -12 195 -25 63 -13 150 -27 192 -30 42 -4 98 -16 123
-27 25 -11 78 -26 118 -34 40 -8 97 -25 127 -39 30 -14 62 -26 70 -26 8 0 31
-10 50 -21 19 -12 58 -30 85 -39 28 -9 68 -27 90 -39 22 -11 45 -21 52 -21 6
0 24 -11 40 -24 15 -13 48 -33 73 -45 40 -19 183 -112 218 -142 7 -6 43 -33
80 -61 37 -28 95 -76 130 -106 53 -46 66 -53 90 -47 29 7 220 190 253 242 18
29 19 35 5 66 -8 19 -54 75 -103 125 -253 257 -273 279 -273 311 0 22 13 44
48 82 40 43 54 52 82 52 30 0 46 -12 139 -111 58 -61 274 -282 480 -492 206
-209 381 -390 389 -401 21 -31 6 -71 -46 -121 -82 -79 -66 -87 -300 151 -115
116 -211 211 -215 211 -18 0 -88 -59 -177 -151 -86 -89 -100 -108 -100 -137 0
-34 14 -69 35 -87 14 -12 133 -159 158 -195 9 -14 33 -45 52 -70 19 -25 44
-63 56 -85 12 -22 32 -53 45 -68 13 -16 24 -33 24 -38 0 -6 11 -25 24 -42 13
-18 28 -47 35 -66 6 -19 17 -42 25 -50 7 -9 33 -59 56 -111 23 -52 55 -122 71
-156 16 -34 29 -71 29 -83 0 -12 11 -41 25 -65 13 -23 29 -71 34 -106 5 -36
18 -85 29 -110 11 -25 25 -86 31 -136 6 -51 18 -111 26 -134 20 -58 35 -186
35 -307 0 -108 7 -127 53 -138 12 -3 160 -5 328 -3 241 2 309 6 322 17 15 12
17 46 17 300 0 210 3 290 12 299 16 16 159 16 180 0 14 -11 16 -65 19 -433 2
-231 3 -552 1 -713 l-2 -293 -35 -15 c-52 -21 -131 -18 -155 6 -19 19 -20 33
-20 305 0 271 -1 285 -19 295 -27 14 -655 14 -682 0 -17 -10 -19 -23 -20 -123
0 -135 -11 -232 -33 -312 -10 -33 -22 -98 -28 -144 -5 -46 -19 -104 -30 -130
-11 -25 -24 -72 -29 -105 -5 -32 -21 -80 -34 -107 -14 -26 -25 -56 -25 -65 0
-18 -40 -116 -91 -219 -16 -33 -36 -76 -44 -95 -8 -19 -33 -64 -55 -100 -22
-36 -47 -78 -55 -95 -23 -44 -105 -166 -173 -256 -96 -127 -143 -187 -166
-208 -19 -18 -26 -35 -26 -61 0 -34 11 -49 134 -175 130 -133 136 -138 168
-131 26 5 74 47 224 200 106 107 202 197 214 201 19 6 34 -4 87 -57 61 -61 63
-65 53 -94 -6 -16 -66 -85 -133 -154 -633 -647 -866 -880 -880 -880 -19 0
-147 128 -147 148 0 8 62 78 139 156 299 304 281 282 263 328 -12 27 -252 269
-279 279 -36 13 -39 12 -76 -23 -18 -18 -51 -46 -72 -63 -21 -16 -56 -43 -77
-60 -21 -16 -52 -41 -70 -55 -35 -28 -117 -84 -169 -115 -110 -67 -296 -165
-313 -165 -7 0 -37 -13 -67 -29 -30 -15 -72 -31 -93 -35 -22 -4 -61 -18 -87
-31 -25 -13 -70 -27 -100 -31 -30 -3 -77 -17 -104 -29 -32 -14 -89 -27 -153
-34 -57 -6 -144 -20 -195 -31 -58 -13 -147 -23 -242 -26 -111 -4 -154 -9 -165
-20 -21 -21 -22 -492 -1 -517 12 -15 44 -17 280 -17 194 0 273 -4 291 -13 24
-12 25 -18 28 -107 2 -80 0 -97 -15 -107 -24 -18 -1403 -19 -1421 -1 -14 14
-16 186 -2 208 8 13 54 15 295 18 l285 3 18 26 c15 23 17 59 20 251 4 248 -1
272 -56 272 -28 0 -151 21 -232 39 -25 5 -89 15 -143 21 -54 6 -126 22 -160
34 -34 13 -87 26 -117 30 -30 4 -73 18 -95 30 -22 13 -57 26 -77 30 -40 7
-137 48 -230 96 -31 17 -63 30 -72 30 -8 0 -28 11 -44 25 -17 14 -45 31 -64
37 -18 6 -42 19 -53 29 -32 28 -87 66 -130 90 -51 28 -219 164 -310 251 -85
82 -105 97 -128 98 -10 0 -61 -44 -113 -97 -53 -54 -137 -140 -187 -190 l-92
-93 19 -34 c10 -18 100 -118 201 -222 101 -104 187 -199 190 -212 4 -18 -3
-33 -31 -64 -48 -53 -99 -98 -112 -98 -6 0 -41 32 -79 71 -37 40 -162 167
-278 284 -581 589 -654 667 -655 701 0 6 25 38 56 72 41 46 62 62 82 62 21 0
67 -41 229 -205 137 -139 209 -205 224 -205 14 0 80 60 205 187 158 161 184
192 184 218 -1 28 -34 78 -144 211 -14 17 -30 42 -35 55 -5 13 -28 49 -50 79
-23 30 -52 78 -66 107 -13 28 -28 54 -34 57 -5 4 -21 30 -35 59 -14 28 -30 59
-35 67 -21 35 -71 147 -77 175 -4 17 -17 48 -29 70 -13 22 -28 64 -34 94 -6
30 -20 69 -31 86 -11 17 -22 58 -26 91 -4 32 -17 84 -30 115 -15 36 -27 96
-34 164 -6 60 -13 112 -16 117 -11 18 -25 120 -33 251 -7 110 -12 142 -26 157
-17 19 -33 20 -287 20 l-269 0 -24 -25 c-22 -21 -25 -33 -25 -97 -2 -377 -6
-508 -17 -519 -17 -17 -154 -24 -181 -10 l-22 12 0 710 c0 828 -7 769 95 769
53 0 69 -4 92 -24 l28 -24 5 -287 c5 -269 6 -288 24 -301 27 -19 553 -21 579
-1 11 8 19 39 27 102 5 50 14 115 19 145 5 30 16 114 26 185 9 72 25 151 35
177 11 25 24 79 30 119 6 40 19 86 30 104 11 17 25 56 31 86 6 30 22 74 35 99
13 25 24 52 24 60 0 8 13 42 30 75 16 33 37 76 45 95 9 19 30 61 48 92 18 31
43 76 56 100 13 24 34 57 47 74 13 17 24 36 24 41 0 6 7 16 16 24 8 7 24 29
35 48 38 69 84 131 150 202 45 48 63 90 55 125 -7 26 -61 87 -246 274 -148
150 -126 155 -371 -93 -122 -124 -202 -197 -214 -197 -28 0 -67 28 -109 78
-63 76 -134 -10 637 774 292 298 314 318 347 318 30 0 42 -9 88 -62 28 -34 52
-69 52 -77 0 -9 -90 -108 -200 -221 -110 -113 -200 -213 -200 -222 0 -9 4 -27
9 -40 11 -27 315 -339 348 -356 41 -22 63 -13 141 58 42 39 92 82 110 98 18
15 43 36 55 48 12 12 40 33 62 47 22 15 58 40 80 56 22 17 58 40 80 52 22 12
47 28 56 35 8 8 59 36 111 63 53 27 107 56 120 64 13 8 41 20 63 27 22 7 58
23 80 35 22 12 62 28 89 34 27 7 66 21 86 31 21 11 64 23 96 29 33 5 80 19
106 30 28 12 91 25 149 31 55 5 126 17 156 26 30 9 104 19 164 23 64 4 115 13
122 20 18 19 17 502 -2 524 -12 15 -45 17 -287 17 -265 0 -319 5 -336 33 -10
16 -9 144 2 172 5 13 19 25 32 28 52 10 1400 7 1419 -3z"/>
<path d="M4270 6779 c-30 -5 -72 -16 -94 -25 -21 -8 -72 -19 -112 -24 -41 -5
-91 -18 -113 -29 -21 -11 -60 -25 -87 -32 -27 -6 -63 -19 -80 -29 -17 -9 -48
-23 -70 -30 -21 -7 -48 -21 -60 -32 -12 -10 -37 -23 -56 -29 -20 -5 -53 -23
-73 -39 -21 -17 -43 -30 -50 -30 -14 0 -56 -31 -249 -183 -102 -80 -262 -241
-340 -341 -134 -173 -191 -255 -201 -286 -4 -14 -16 -34 -26 -45 -10 -11 -25
-40 -33 -63 -9 -24 -25 -55 -36 -69 -11 -14 -20 -31 -20 -38 0 -7 -13 -36 -29
-66 -15 -30 -31 -71 -35 -92 -4 -21 -16 -53 -27 -71 -11 -19 -24 -61 -29 -94
-6 -33 -19 -81 -31 -107 -13 -29 -24 -85 -30 -148 -5 -56 -12 -109 -14 -118
-27 -86 -37 -406 -17 -529 6 -41 19 -135 27 -208 10 -84 22 -147 34 -170 10
-20 22 -62 26 -92 3 -30 17 -75 30 -100 12 -25 26 -61 30 -80 7 -34 52 -140
80 -190 8 -14 21 -41 30 -60 8 -19 23 -48 32 -65 9 -16 24 -43 33 -60 9 -16
27 -48 41 -70 13 -22 29 -47 34 -56 36 -61 204 -268 280 -345 53 -54 173 -156
210 -179 17 -11 37 -25 45 -32 38 -33 109 -81 129 -88 11 -3 33 -17 49 -29 15
-13 44 -29 64 -35 20 -7 47 -20 60 -30 13 -10 40 -24 60 -30 20 -7 48 -21 61
-31 13 -11 46 -24 71 -30 26 -6 64 -19 85 -29 20 -11 65 -24 98 -31 34 -6 88
-20 120 -31 176 -61 844 -57 1020 5 40 14 85 26 100 26 16 0 51 11 78 23 28
13 71 29 96 35 25 6 72 25 104 42 31 16 65 30 75 30 9 0 28 8 41 19 13 10 42
28 64 40 83 45 166 100 246 161 25 19 63 48 85 65 53 41 218 206 285 285 53
62 91 115 134 185 11 17 33 52 49 76 36 54 89 149 116 209 11 25 31 65 44 90
13 25 27 62 30 83 4 21 18 53 30 72 14 20 27 58 31 92 4 32 16 74 26 95 10 20
26 86 34 145 8 59 23 131 32 158 15 43 18 91 18 345 -1 255 -3 300 -18 333 -9
21 -23 88 -31 150 -9 62 -27 144 -41 182 -13 39 -25 80 -25 92 0 11 -13 50
-30 85 -16 34 -30 69 -30 77 0 12 -18 50 -68 146 -12 22 -33 63 -47 90 -14 28
-39 70 -55 95 -17 25 -38 58 -48 74 -9 16 -29 43 -43 60 -14 17 -34 46 -44 64
-11 17 -22 32 -26 32 -3 0 -18 17 -31 38 -54 80 -330 346 -433 415 -22 15 -60
43 -85 62 -25 19 -58 42 -75 49 -16 8 -41 23 -55 34 -14 10 -42 24 -62 31 -20
7 -42 19 -49 27 -6 8 -35 21 -65 30 -29 8 -63 23 -76 34 -13 10 -42 22 -63 26
-22 4 -63 18 -93 32 -29 13 -85 28 -125 33 -39 5 -99 19 -132 31 -56 20 -81
22 -355 24 -162 2 -320 -2 -350 -7z"/>
</g>
</svg>
